<?xml version="1.0" encoding="UTF-8"?>
<svg version="1.1" xmlns="http://www.w3.org/2000/svg" width="732" height="252">
<path d="M0 0 C0.97484848 0.00222061 1.94969696 0.00444122 2.9540863 0.00672913 C4.05515213 0.00680466 5.15621796 0.00688019 6.29064941 0.00695801 C8.08749428 0.01469994 8.08749428 0.01469994 9.92063904 0.02259827 C11.14000656 0.02401321 12.35937408 0.02542816 13.61569214 0.02688599 C17.52856349 0.03250485 21.4413786 0.04506055 25.35423279 0.05775452 C27.99941426 0.06276709 30.64459662 0.06733041 33.28977966 0.07142639 C39.79045005 0.08248041 46.2910874 0.09923688 52.79173279 0.12025452 C53.81435747 6.02502482 53.93681796 11.76145713 53.93357849 17.74623108 C53.93705292 18.79272324 53.94052734 19.83921539 53.94410706 20.91741943 C53.95143715 23.18177514 53.9567971 25.44613791 53.96039772 27.71050262 C53.9675954 31.30147035 53.98328663 34.89230398 54.0017395 38.48323059 C54.05405438 48.69050768 54.10216761 58.89770949 54.11766052 69.1051178 C54.1277704 75.3573491 54.15716841 81.60923946 54.19898033 87.86133575 C54.21124886 90.23580593 54.21641922 92.61032432 54.2141819 94.98482513 C54.21181546 98.3158173 54.23409743 101.64583932 54.26170349 104.97669983 C54.25510208 105.94538498 54.24850067 106.91407013 54.24169922 107.91210938 C54.35469261 116.2694675 56.69646654 123.82409804 60.79173279 131.12025452 C62.63508724 132.30254498 62.63508724 132.30254498 64.79173279 133.12025452 C65.50329529 133.47345764 66.21485779 133.82666077 66.94798279 134.19056702 C75.54459222 138.05904126 83.54008678 138.43379909 92.54173279 135.55775452 C99.71148536 132.59880901 104.94819528 128.55729311 108.22923279 121.43275452 C109.96671773 117.04618939 110.91353605 113.1227086 110.94322205 108.39401245 C110.9515657 107.4475737 110.95990936 106.50113495 110.96850586 105.52601624 C110.97269028 104.49468567 110.97687469 103.4633551 110.98118591 102.40077209 C110.98947922 101.30939438 110.99777252 100.21801666 111.00631714 99.09356689 C111.0237115 96.72437804 111.03887999 94.35517205 111.05209351 91.98595619 C111.07310753 88.24256501 111.10012924 84.4992605 111.12876892 80.75592041 C111.19354379 72.13845823 111.24945268 63.52094614 111.30475616 54.90341949 C111.35959992 46.37016183 111.41822767 37.83694748 111.48361206 29.30376244 C111.51028369 25.60489669 111.53103617 21.90602673 111.55162048 18.2071228 C111.56821415 15.95526414 111.58508516 13.7034075 111.60227966 11.45155334 C111.60646408 10.41415009 111.6106485 9.37674683 111.61495972 8.3079071 C111.62330338 7.36992783 111.63164703 6.43194855 111.64024353 5.46554565 C111.64539726 4.64573621 111.65055099 3.82592676 111.6558609 2.9812746 C111.79173279 1.12025452 111.79173279 1.12025452 112.79173279 0.12025452 C131.60173279 0.12025452 150.41173279 0.12025452 169.79173279 0.12025452 C169.79173279 60.18025452 169.79173279 120.24025452 169.79173279 182.12025452 C153.95173279 182.12025452 138.11173279 182.12025452 121.79173279 182.12025452 C120.22788197 180.5564037 120.35049857 178.80911361 120.03782654 176.64759827 C119.83963318 175.29891663 119.83963318 175.29891663 119.63743591 173.92298889 C119.50272888 172.97746155 119.36802185 172.0319342 119.22923279 171.05775452 C119.09065857 170.10835999 118.95208435 169.15896545 118.80931091 168.18080139 C118.46641092 165.82779802 118.12739342 163.47429969 117.79173279 161.12025452 C117.09048279 161.91689514 116.38923279 162.71353577 115.66673279 163.53431702 C102.12636929 178.74085484 88.22806916 185.954739 67.75267029 187.24916077 C48.40386578 187.79266651 30.27134516 182.05177864 15.97923279 168.80775452 C1.34303443 153.06760933 -3.37551219 131.97353358 -3.33766174 111.14222717 C-3.33941406 109.95287567 -3.34116638 108.76352417 -3.3429718 107.53813171 C-3.34660563 104.29476695 -3.34577325 101.05144335 -3.34259272 97.80807924 C-3.34005271 94.41062111 -3.34241089 91.01316564 -3.34397888 87.6157074 C-3.3457943 81.91816212 -3.34340919 76.22062985 -3.33863831 70.52308655 C-3.3331812 63.9297417 -3.33497132 57.33642771 -3.34046471 50.7430836 C-3.34499506 45.07927677 -3.34564725 39.41547925 -3.34302604 33.7516712 C-3.34146485 30.36975242 -3.34126553 26.98784818 -3.34456253 23.60593033 C-3.34708643 19.84457013 -3.34325293 16.08327034 -3.33766174 12.32191467 C-3.33968597 11.19571716 -3.34171021 10.06951965 -3.34379578 8.90919495 C-3.33956604 7.38251694 -3.33956604 7.38251694 -3.33525085 5.82499695 C-3.33487383 4.93534052 -3.3344968 4.04568409 -3.33410835 3.12906837 C-3.15556902 0.27902843 -2.8535472 0.15539421 0 0 Z " fill="#0D6869" transform="translate(224.20826721191406,26.879745483398438)"/>
<path d="M0 0 C2.16311087 0.00316173 4.32484927 -0.02042404 6.48779297 -0.0456543 C28.64505033 -0.1465617 49.50164792 5.43814868 65.97607422 20.90551758 C82.22083018 37.77927925 84.48925628 60.6843027 84.40991211 83.05102539 C84.41005814 84.15493118 84.41020416 85.25883698 84.41035461 86.39619446 C84.40966491 89.99958346 84.40191717 93.602919 84.39404297 97.20629883 C84.39217544 99.72263562 84.39075312 102.23897277 84.38975525 104.75531006 C84.38634353 110.67292763 84.37848387 116.59052586 84.36840576 122.50813556 C84.35408981 131.10336471 84.3489158 139.6986004 84.34259796 148.2938385 C84.33293562 160.30113248 84.31376062 172.30837738 84.29638672 184.31567383 C68.12638672 184.31567383 51.95638672 184.31567383 35.29638672 184.31567383 C33.31638672 174.41567383 33.31638672 174.41567383 31.29638672 164.31567383 C30.01763672 165.82129883 28.73888672 167.32692383 27.42138672 168.87817383 C14.83485235 182.82594781 -0.98653021 188.19231784 -19.47265625 189.24291992 C-37.52668468 189.88447734 -55.74439311 186.01615427 -70.02001953 174.43676758 C-80.3275037 164.75516481 -86.0842117 151.51135743 -86.85986328 137.49145508 C-87.30891512 121.98045605 -83.55636693 109.16025402 -73.70361328 97.12817383 C-60.86485904 83.57973971 -41.63175595 78.62673126 -23.70361328 76.31567383 C-22.9644165 76.21778564 -22.22521973 76.11989746 -21.46362305 76.01904297 C-11.68700484 74.92763257 -1.83772591 75.2072582 7.98388672 75.25317383 C9.86083865 75.25819892 11.73779188 75.26276004 13.61474609 75.2668457 C18.17532559 75.27777125 22.73584151 75.29498025 27.29638672 75.31567383 C27.06109253 73.91671875 27.06109253 73.91671875 26.82104492 72.48950195 C26.49346454 70.50786165 26.18394977 68.52304898 25.90185547 66.53442383 C24.91472559 60.11346687 23.85458556 55.20418899 18.57373047 50.91723633 C11.04368564 45.73752358 2.75096935 44.94102622 -6.20361328 45.00317383 C-7.50564697 45.0116333 -7.50564697 45.0116333 -8.83398438 45.02026367 C-25.62983168 45.32999173 -41.84101059 49.67138472 -57.07861328 56.69067383 C-60.70361328 58.31567383 -60.70361328 58.31567383 -64.70361328 58.31567383 C-66.37944829 51.32817048 -67.45687318 44.38276249 -68.32861328 37.25317383 C-68.46267578 36.21612305 -68.59673828 35.17907227 -68.73486328 34.1105957 C-70.13784905 22.82228678 -70.13784905 22.82228678 -69.70361328 17.31567383 C-53.21987395 2.58552379 -20.88246288 -0.06347968 0 0 Z M-26.57861328 115.69067383 C-30.62947154 120.69467521 -32.24921796 124.68595823 -31.98095703 131.08129883 C-31.1974209 137.39373073 -28.38034797 141.08488557 -23.71533203 145.05395508 C-15.80023821 150.01817897 -5.16215225 149.40986843 3.72607422 147.62817383 C13.41825952 144.66872793 19.95646925 139.89190492 25.29638672 131.31567383 C26.24807355 128.46061334 26.48648132 126.40630101 26.61279297 123.42895508 C26.67563477 122.02226562 26.67563477 122.02226562 26.73974609 120.5871582 C26.7790625 119.61069336 26.81837891 118.63422852 26.85888672 117.62817383 C26.92366211 116.14607422 26.92366211 116.14607422 26.98974609 114.6340332 C27.09580326 112.19471837 27.19786385 109.75530269 27.29638672 107.31567383 C-1.12931821 105.52337644 -1.12931821 105.52337644 -26.57861328 115.69067383 Z " fill="#0E6869" transform="translate(625.70361328125,24.684326171875)"/>
<path d="M0 0 C14.46516298 13.43193705 18.93926222 33.30045802 20.25 52.25 C20.37428836 56.12497431 20.37722906 59.99512787 20.36352539 63.87182617 C20.36367142 64.97558594 20.36381744 66.0793457 20.3639679 67.21655273 C20.36327728 70.82537883 20.35552513 74.43415179 20.34765625 78.04296875 C20.34578904 80.56073478 20.34436657 83.07850118 20.34336853 85.5962677 C20.33995467 91.52100113 20.33209211 97.44571782 20.32201904 103.37044269 C20.30771259 111.97427446 20.30253075 120.57811274 20.29621124 129.18195343 C20.28654428 141.20465111 20.26737105 153.22729987 20.25 165.25 C4.08 165.25 -12.09 165.25 -28.75 165.25 C-30.73 155.35 -30.73 155.35 -32.75 145.25 C-34.02875 146.755625 -35.3075 148.26125 -36.625 149.8125 C-48.19526663 162.59213928 -63.6370598 169.19650068 -80.75 170.25 C-100.17446334 171.02603788 -118.40754709 167.7517831 -133.75 155.25 C-144.29053627 144.96766131 -149.84494467 132.0753626 -150.13061523 117.4140625 C-150.09411172 102.12702762 -147.01610518 89.6314946 -136.63671875 77.8515625 C-115.35442622 56.891187 -82.50100642 56.04466522 -54.5 56.1875 C-52.77213672 56.19252757 -51.04427202 56.19708824 -49.31640625 56.20117188 C-45.12756832 56.21207203 -40.93880033 56.22926652 -36.75 56.25 C-36.87804401 54.00998306 -37.01522278 51.77048704 -37.15625 49.53125 C-37.23166016 48.28408203 -37.30707031 47.03691406 -37.38476562 45.75195312 C-37.97906587 40.05366257 -39.41203082 36.3396478 -43.69921875 32.5078125 C-55.02972858 24.24227479 -70.46340881 24.90691774 -83.796875 26.9375 C-96.33279121 29.14907542 -108.95583351 32.59107014 -120.51171875 37.99609375 C-123.65156191 39.21188344 -124.73584278 39.57622918 -127.75 38.25 C-129.18202322 31.05618923 -130.30667619 23.81759161 -131.375 16.5625 C-131.51010986 15.67216064 -131.64521973 14.78182129 -131.78442383 13.86450195 C-132.15083815 11.32976314 -132.4568224 8.79410734 -132.75 6.25 C-132.87084961 5.5079834 -132.99169922 4.7659668 -133.11621094 4.00146484 C-133.3359375 1.91796875 -133.3359375 1.91796875 -132.75 -1.75 C-128.27652557 -6.27728168 -121.40217107 -8.29766958 -115.5 -10.3125 C-114.64245117 -10.60914551 -113.78490234 -10.90579102 -112.90136719 -11.21142578 C-103.7040513 -14.27663972 -94.3133809 -16.22557565 -84.75 -17.75 C-83.53699219 -17.94335938 -82.32398437 -18.13671875 -81.07421875 -18.3359375 C-52.58238527 -21.67587238 -22.73344057 -18.7464628 0 0 Z M-92.75 99.25 C-95.76287179 104.67316923 -96.67873304 109.20227183 -95.28125 115.29296875 C-93.64878139 120.47216974 -91.33532578 123.16372303 -86.75 126.25 C-81.49122449 128.90516606 -77.36480651 129.77148291 -71.5 129.6875 C-70.75564697 129.67992676 -70.01129395 129.67235352 -69.24438477 129.66455078 C-57.91776879 129.32871129 -49.28098411 124.93047017 -41.4375 116.875 C-37.17993681 110.25212392 -36.31862787 104.42884538 -36.5625 96.75 C-36.57603516 95.92757812 -36.58957031 95.10515625 -36.60351562 94.2578125 C-36.63844984 92.25491779 -36.69223943 90.25236644 -36.75 88.25 C-66.90143879 86.34814576 -66.90143879 86.34814576 -92.75 99.25 Z " fill="#0E6869" transform="translate(171.75,43.75)"/>
<path d="M0 0 C1.45599609 0.00773437 1.45599609 0.00773437 2.94140625 0.015625 C7.00808235 0.06049867 10.69630734 0.12170208 14.625 1.25 C15.32402924 11.83529994 15.7304005 22.39013945 15.75 33 C15.75451172 34.010625 15.75902344 35.02125 15.76367188 36.0625 C15.75330223 41.23349766 15.52159287 46.15507542 14.625 51.25 C13.78074463 51.22643433 13.78074463 51.22643433 12.91943359 51.20239258 C-2.30357648 50.83476945 -17.07058763 50.67662621 -30.375 59.25 C-31.18904297 60.06984375 -31.18904297 60.06984375 -32.01953125 60.90625 C-33.375 62.25 -33.375 62.25 -35.375 62.25 C-35.6534375 62.81332031 -35.931875 63.37664062 -36.21875 63.95703125 C-36.98969034 65.48588929 -37.781513 67.00439431 -38.59375 68.51171875 C-39.0165625 69.31222656 -39.439375 70.11273438 -39.875 70.9375 C-40.2978125 71.72511719 -40.720625 72.51273437 -41.15625 73.32421875 C-44.14166735 80.49113413 -44.67525766 87.67155057 -44.69384766 95.35961914 C-44.70891609 96.80999573 -44.70891609 96.80999573 -44.72428894 98.28967285 C-44.75494051 101.45482847 -44.77210568 104.61990022 -44.7890625 107.78515625 C-44.80778866 109.99190483 -44.82736314 112.19864636 -44.8477478 114.40538025 C-44.89892196 120.19041778 -44.93862627 125.97547849 -44.97589111 131.76062012 C-45.02308944 138.71418787 -45.08462391 145.66764194 -45.14373779 152.62111664 C-45.23177048 163.1640315 -45.30166359 173.70692655 -45.375 184.25 C-63.525 184.25 -81.675 184.25 -100.375 184.25 C-100.39754479 160.667801 -100.41597787 137.08561069 -100.42681217 113.50340366 C-100.43197569 102.55459267 -100.43901946 91.60578883 -100.45043945 80.65698242 C-100.46038458 71.11767269 -100.46685302 61.57836815 -100.46908849 52.03905338 C-100.47039589 46.98475977 -100.47348358 41.93048097 -100.48073006 36.87619209 C-100.48748757 32.12471216 -100.48961751 27.37325323 -100.48810768 22.62176895 C-100.48838413 20.87256316 -100.49039084 19.1233567 -100.49420547 17.37415504 C-100.49913854 14.99664852 -100.49799974 12.61922264 -100.49525452 10.24171448 C-100.49816736 9.54036568 -100.5010802 8.83901688 -100.50408131 8.11641508 C-100.48912121 3.36412121 -100.48912121 3.36412121 -99.375 2.25 C-98.03526951 2.14181826 -96.68998357 2.10101201 -95.34594727 2.08886719 C-94.06440514 2.07445587 -94.06440514 2.07445587 -92.75697327 2.05975342 C-91.82783615 2.05550354 -90.89869904 2.05125366 -89.94140625 2.046875 C-88.99313461 2.04117493 -88.04486298 2.03547485 -87.06785583 2.02960205 C-85.05786256 2.02013728 -83.04785367 2.01361223 -81.0378418 2.00976562 C-77.95399088 2.00005194 -74.8708039 1.96903918 -71.78710938 1.9375 C-69.83854564 1.93097118 -67.88997712 1.92572023 -65.94140625 1.921875 C-64.55073692 1.9033548 -64.55073692 1.9033548 -63.13197327 1.88446045 C-61.8457029 1.8889621 -61.8457029 1.8889621 -60.53344727 1.89355469 C-59.39879784 1.88808624 -59.39879784 1.88808624 -58.2412262 1.88250732 C-57.31744423 2.0644162 -57.31744423 2.0644162 -56.375 2.25 C-54.40071874 5.21142189 -53.93898674 6.69243569 -53.33984375 10.1015625 C-53.17033203 11.03484375 -53.00082031 11.968125 -52.82617188 12.9296875 C-52.65666016 13.90164062 -52.48714844 14.87359375 -52.3125 15.875 C-51.9708878 17.80529943 -51.62601321 19.73502533 -51.27734375 21.6640625 C-51.05292603 22.94724365 -51.05292603 22.94724365 -50.82397461 24.25634766 C-50.56405472 26.23910501 -50.56405472 26.23910501 -49.375 27.25 C-48.97410156 26.6209375 -48.57320313 25.991875 -48.16015625 25.34375 C-36.92524297 8.42769009 -20.29617866 -0.44182158 0 0 Z " fill="#0D6869" transform="translate(524.375,24.75)"/>
<path d="M0 0 C1.28154213 -0.01441132 1.28154213 -0.01441132 2.588974 -0.02911377 C3.51811111 -0.03336365 4.44724823 -0.03761353 5.40454102 -0.04199219 C6.35281265 -0.04769226 7.30108429 -0.05339233 8.27809143 -0.05926514 C10.2880847 -0.06872991 12.29809359 -0.07525496 14.30810547 -0.07910156 C17.39195638 -0.08881524 20.47514337 -0.119828 23.55883789 -0.15136719 C25.50740162 -0.15789601 27.45597014 -0.16314696 29.40454102 -0.16699219 C30.79521034 -0.18551239 30.79521034 -0.18551239 32.213974 -0.20440674 C33.50024437 -0.19990509 33.50024437 -0.19990509 34.8125 -0.1953125 C35.94714943 -0.20078094 35.94714943 -0.20078094 37.10472107 -0.20635986 C38.02850304 -0.02445099 38.02850304 -0.02445099 38.97094727 0.16113281 C39.63094727 1.15113281 40.29094727 2.14113281 40.97094727 3.16113281 C40.64094727 4.15113281 40.31094727 5.14113281 39.97094727 6.16113281 C39.31094727 5.17113281 38.65094727 4.18113281 37.97094727 3.16113281 C35.06506109 2.66576669 35.06506109 2.66576669 31.64282227 2.68457031 C29.73049805 2.63816406 29.73049805 2.63816406 27.77954102 2.59082031 C26.42668657 2.57185354 25.0738215 2.55363107 23.72094727 2.53613281 C21.09055487 2.48774021 18.46053295 2.43034286 15.83032227 2.37207031 C14.65953125 2.35450684 13.48874023 2.33694336 12.2824707 2.31884766 C9.10249001 2.16739768 6.09607016 1.75280534 2.97094727 1.16113281 C2.64094727 2.15113281 2.31094727 3.14113281 1.97094727 4.16113281 C0.65094727 3.83113281 -0.66905273 3.50113281 -2.02905273 3.16113281 C-3.0052023 7.25267798 -3.16582136 11.09110245 -3.18727112 15.29219055 C-3.19467808 16.35215525 -3.19467808 16.35215525 -3.20223469 17.43353337 C-3.2175597 19.79496071 -3.2259567 22.15636097 -3.234375 24.51782227 C-3.24395746 26.21312192 -3.25396775 27.90841919 -3.26437378 29.60371399 C-3.29138908 34.20242961 -3.31241691 38.80115546 -3.33237576 43.3999064 C-3.35425613 48.20723089 -3.38163479 53.01452398 -3.40843201 57.82182312 C-3.45833115 66.92354301 -3.5032803 76.02528036 -3.54645437 85.12703437 C-3.59585048 95.48973084 -3.65075981 105.8523958 -3.70613396 116.21506178 C-3.81991137 137.53039083 -3.92603186 158.84574888 -4.02905273 180.16113281 C13.13094727 180.16113281 30.29094727 180.16113281 47.97094727 180.16113281 C47.47594727 131.65113281 47.47594727 131.65113281 46.97094727 82.16113281 C47.96094727 81.83113281 48.95094727 81.50113281 49.97094727 81.16113281 C49.97094727 79.51113281 49.97094727 77.86113281 49.97094727 76.16113281 C50.63094727 75.83113281 51.29094727 75.50113281 51.97094727 75.16113281 C51.81018204 76.27496338 51.64941681 77.38879395 51.48377991 78.53637695 C50.87739832 83.4147892 50.79713804 88.2460728 50.765625 93.15722656 C50.7557254 94.12399826 50.74582581 95.09076996 50.73562622 96.08683777 C50.70423658 99.25741188 50.6793436 102.42800092 50.65454102 105.59863281 C50.63395199 107.80680717 50.61295503 110.01497776 50.59156799 112.22314453 C50.53654849 118.01642797 50.48705098 123.80974579 50.4387207 129.60308838 C50.37949321 136.56410964 50.31337663 143.5250685 50.24842072 150.48603821 C50.15066461 161.04436475 50.06163528 171.60273254 49.97094727 182.16113281 C31.82094727 182.16113281 13.67094727 182.16113281 -5.02905273 182.16113281 C-5.05159753 158.57893382 -5.0700306 134.9967435 -5.08086491 111.41453648 C-5.08602843 100.46572548 -5.09307219 89.51692164 -5.10449219 78.56811523 C-5.11443731 69.02880551 -5.12090575 59.48950096 -5.12314123 49.95018619 C-5.12444863 44.89589258 -5.12753632 39.84161378 -5.13478279 34.78732491 C-5.14154031 30.03584497 -5.14367025 25.28438605 -5.14216042 20.53290176 C-5.14243687 18.78369597 -5.14444358 17.03448951 -5.14825821 15.28528786 C-5.15319127 12.90778134 -5.15205247 10.53035545 -5.14930725 8.15284729 C-5.15222009 7.45149849 -5.15513293 6.75014969 -5.15813404 6.0275479 C-5.14201861 0.90824413 -5.13689561 0.04641742 0 0 Z " fill="#1A5D5F" transform="translate(429.029052734375,26.8388671875)"/>
<path d="M0 0 C18.81 0 37.62 0 57 0 C57 60.06 57 120.12 57 182 C41.16 182 25.32 182 9 182 C9 181.67 9 181.34 9 181 C24.51 181 40.02 181 56 181 C56 121.93 56 62.86 56 2 C53.69 2.33 51.38 2.66 49 3 C46.7464637 2.89113351 44.49545609 2.71955571 42.25 2.5 C33.22599469 1.74401582 24.260834 2.22379664 15.22949219 2.68164062 C14.10833008 2.73513672 12.98716797 2.78863281 11.83203125 2.84375 C10.32733276 2.92399414 10.32733276 2.92399414 8.79223633 3.00585938 C6.04905494 3.00010294 3.66181109 2.63540203 1 2 C0.01 3.485 0.01 3.485 -1 5 C-0.67 3.35 -0.34 1.7 0 0 Z " fill="#165D5B" transform="translate(337,27)"/>
<path d="M0 0 C0.99 0.33 1.98 0.66 3 1 C2.67 1.99 2.34 2.98 2 4 C1.34 4 0.68 4 0 4 C0.10714896 19.22041103 0.21989403 34.44077343 0.33933926 49.66109276 C0.39466603 56.72782094 0.44814713 63.79455418 0.49731445 70.86132812 C0.54473227 77.67590813 0.59725214 84.49043335 0.65294075 91.30495071 C0.67338564 93.91015975 0.69209512 96.51538298 0.70907402 99.12061691 C0.73307082 102.75803531 0.76313182 106.39535521 0.79467773 110.03271484 C0.8004332 111.1195607 0.80618866 112.20640656 0.81211853 113.32618713 C0.82190735 114.31339249 0.83169617 115.30059784 0.84178162 116.31771851 C0.84823417 117.17867315 0.85468672 118.0396278 0.8613348 118.92667198 C0.86998735 121.06208332 0.86998735 121.06208332 2 123 C2.07065617 125.04055005 2.08421976 127.08334257 2.0625 129.125 C2.05347656 130.22070312 2.04445312 131.31640625 2.03515625 132.4453125 C2.02355469 133.28835937 2.01195312 134.13140625 2 135 C1.67 135 1.34 135 1 135 C-0.62148001 126.74463979 -1.28600441 118.85790481 -1.24291992 110.4543457 C-1.24481827 109.26426407 -1.24671661 108.07418243 -1.24867249 106.84803772 C-1.25234503 102.95721623 -1.24173208 99.06658582 -1.23046875 95.17578125 C-1.22826461 92.46005719 -1.22877334 89.74433501 -1.2290802 87.02861023 C-1.22814841 81.36092796 -1.21952292 75.69329978 -1.20581055 70.02563477 C-1.19000656 63.46910484 -1.18481556 56.91263367 -1.1855461 50.35608608 C-1.18622009 43.36243294 -1.179297 36.36880247 -1.1700995 29.37515616 C-1.16796639 27.36105307 -1.16725813 25.34695362 -1.16686058 23.3328495 C-1.16470591 19.59597397 -1.15598335 15.85917392 -1.14526367 12.12231445 C-1.14571686 11.00397217 -1.14617004 9.88562988 -1.14663696 8.73339844 C-1.14237198 7.7228389 -1.13810699 6.71227936 -1.13371277 5.6710968 C-1.13203692 4.78793447 -1.13036108 3.90477213 -1.12863445 2.9948473 C-1 1 -1 1 0 0 Z " fill="#215C5C" transform="translate(222,27)"/>
<path d="M0 0 C1.43172729 2.86345459 0.29233382 4.73252641 -0.49872971 7.69065857 C-1.364702 11.68017426 -1.30873426 15.65271127 -1.31884766 19.72070312 C-1.32889328 20.65821411 -1.3389389 21.5957251 -1.34928894 22.56164551 C-1.37997497 25.63484124 -1.39711539 28.70795044 -1.4140625 31.78125 C-1.43278588 33.92216733 -1.45236016 36.06307737 -1.4727478 38.20397949 C-1.52395132 43.81969902 -1.56364002 49.43544243 -1.60089111 55.05126953 C-1.64100474 60.78944757 -1.69206346 66.52752722 -1.7421875 72.265625 C-1.83880727 83.51034743 -1.92325655 94.75512557 -2 106 C-2.99 105.67 -3.98 105.34 -5 105 C-4.34 105 -3.68 105 -3 105 C-3.33 72.66 -3.66 40.32 -4 7 C-3.01 6.67 -2.02 6.34 -1 6 C-1.020625 5.195625 -1.04125 4.39125 -1.0625 3.5625 C-1 1 -1 1 0 0 Z " fill="#0D5D5A" transform="translate(480,102)"/>
<path d="M0 0 C18.81 0 37.62 0 57 0 C57 0.33 57 0.66 57 1 C49.82871046 1.31156513 42.65706951 1.6137474 35.48510742 1.90942383 C33.04556332 2.01110528 30.6061076 2.11493077 28.16674805 2.22094727 C24.65955319 2.37299948 21.15211233 2.51732708 17.64453125 2.66015625 C16.55477493 2.70906509 15.46501862 2.75797394 14.34223938 2.80836487 C13.32155869 2.8484819 12.30087799 2.88859894 11.24926758 2.92993164 C10.35436111 2.96768204 9.45945465 3.00543243 8.53742981 3.04432678 C5.90987812 2.99842565 3.55529246 2.59340864 1 2 C0.01 3.485 0.01 3.485 -1 5 C-0.67 3.35 -0.34 1.7 0 0 Z " fill="#1F615F" transform="translate(337,27)"/>
<path d="M0 0 C0 3 0 3 -1.75 5.0625 C-6.81073212 9.42035266 -11.24380722 9.41870687 -17.6875 9.4375 C-18.5856543 9.44136719 -19.48380859 9.44523438 -20.40917969 9.44921875 C-26.9316683 9.3351643 -31.92335952 8.38722017 -37 4 C-37 3.01 -37 2.02 -37 1 C-35.30729167 2.00911458 -33.61458333 3.01822917 -31.921875 4.02734375 C-25.60416658 7.22472057 -17.56960635 6.94148367 -10.875 5.17578125 C-6.91625554 3.75968782 -3.50687937 2.33791958 0 0 Z " fill="#165F5E" transform="translate(325,158)"/>
<path d="M0 0 C0 0.66 0 1.32 0 2 C-3.86050498 4.94133713 -7.44080396 6.48026799 -12 8 C-13.70921589 9.5412312 -13.70921589 9.5412312 -15 11 C-15.66 11 -16.32 11 -17 11 C-17.66 12.32 -18.32 13.64 -19 15 C-19.66 15 -20.32 15 -21 15 C-21.12375 15.639375 -21.2475 16.27875 -21.375 16.9375 C-21.58125 17.618125 -21.7875 18.29875 -22 19 C-22.66 19.33 -23.32 19.66 -24 20 C-24.72693904 21.97888961 -25.39816251 23.97954558 -26 26 C-26.66 26 -27.32 26 -28 26 C-28.33 27.98 -28.66 29.96 -29 32 C-29.66 32 -30.32 32 -31 32 C-29.381402 22.33899318 -23.20572015 14.39712372 -16 8 C-4.54305166 0 -4.54305166 0 0 0 Z " fill="#165E5D" transform="translate(573,109)"/>
<path d="M0 0 C3.58331625 -0.02907084 7.16660208 -0.04682263 10.75 -0.0625 C11.76578125 -0.07087891 12.7815625 -0.07925781 13.828125 -0.08789062 C14.8078125 -0.09111328 15.7875 -0.09433594 16.796875 -0.09765625 C17.69760742 -0.10289307 18.59833984 -0.10812988 19.52636719 -0.11352539 C21.83389804 -0.00762312 23.79134405 0.34867187 26 1 C26.16864144 4.04156875 26.33497753 7.08323453 26.5 10.125 C26.54769531 10.9809375 26.59539063 11.836875 26.64453125 12.71875 C26.88325644 17.15221786 27.05825595 21.55798349 27 26 C24.51095532 23.51095532 24.64471887 22.44150596 24.3671875 18.9921875 C24.29097168 18.1038623 24.21475586 17.21553711 24.13623047 16.30029297 C24.05002441 15.16994629 23.96381836 14.03959961 23.875 12.875 C23.441875 7.491875 23.441875 7.491875 23 2 C11.615 1.505 11.615 1.505 0 1 C0 0.67 0 0.34 0 0 Z " fill="#1E5B5E" transform="translate(513,25)"/>
<path d="M0 0 C0.66 0.33 1.32 0.66 2 1 C2.48810735 11.56210062 1.83184141 20.00984204 -2 30 C-2.66 30 -3.32 30 -4 30 C-4 30.66 -4 31.32 -4 32 C-4.99 32 -5.98 32 -7 32 C-7 32.66 -7 33.32 -7 34 C-7.99 33.67 -8.98 33.34 -10 33 C-9.60167969 32.5875 -9.20335938 32.175 -8.79296875 31.75 C-8.26316406 31.1725 -7.73335938 30.595 -7.1875 30 C-6.66542969 29.443125 -6.14335937 28.88625 -5.60546875 28.3125 C-1.34507557 22.17587528 -0.5210525 15.81721339 -0.3125 8.5 C-0.27833984 7.67757812 -0.24417969 6.85515625 -0.20898438 6.0078125 C-0.1275012 4.0056545 -0.06205425 2.00285432 0 0 Z " fill="#175D5E" transform="translate(135,132)"/>
<path d="M0 0 C3.37651535 0.4356794 5.89897168 1.44728957 8.875 3 C14.36287481 5.59072262 19.88900152 5.52764067 25.83984375 5.62890625 C27.40412109 5.81259766 27.40412109 5.81259766 29 6 C29.99 7.485 29.99 7.485 31 9 C19.5679257 9.57160371 9.9310264 6.55873823 0 1 C0 0.67 0 0.34 0 0 Z " fill="#1A6160" transform="translate(253,204)"/>
<path d="M0 0 C0.66902344 0.433125 1.33804688 0.86625 2.02734375 1.3125 C13.07737256 7.72003349 23.65695293 6.95229895 36 5 C36 5.66 36 6.32 36 7 C26.17953371 9.53431388 14.58118149 11.04538774 5 7 C3.1875 5.4375 3.1875 5.4375 2 4 C1.34 3.67 0.68 3.34 0 3 C0 2.01 0 1.02 0 0 Z " fill="#1A5F5C" transform="translate(80,166)"/>
<path d="M0 0 C0 0.66 0 1.32 0 2 C-3.28463659 4.18975773 -6.20696275 4.99806563 -10 6 C-10.020625 7.27875 -10.04125 8.5575 -10.0625 9.875 C-10.07410156 10.59429687 -10.08570313 11.31359375 -10.09765625 12.0546875 C-10.12649242 14.08185404 -10.12649242 14.08185404 -9 16 C-9.27942455 17.67654729 -9.60828247 19.34608154 -10 21 C-10.66 21 -11.32 21 -12 21 C-12.38925644 18.66446137 -12.71197759 16.34849038 -13 14 C-13.11472656 13.31679688 -13.22945312 12.63359375 -13.34765625 11.9296875 C-13.5625 9.875 -13.5625 9.875 -13 6 C-9.58681872 2.78525949 -4.78047026 0 0 0 Z " fill="#15605E" transform="translate(569,36)"/>
<path d="M0 0 C0 0.33 0 0.66 0 1 C-1.59714844 1.34611328 -1.59714844 1.34611328 -3.2265625 1.69921875 C-11.8731645 3.62591268 -20.08699648 5.91350838 -28.33984375 9.14453125 C-31 10 -31 10 -33 9 C-30.40635046 6.40635046 -28.13943651 6.0108941 -24.625 5 C-20.12235949 3.72666824 -20.12235949 3.72666824 -15.828125 1.9140625 C-11.18666761 -0.4066662 -5.08703595 -0.1271759 0 0 Z " fill="#195E59" transform="translate(86,70)"/>
<path d="M0 0 C0.33 0 0.66 0 1 0 C1.02505615 0.64026123 1.0501123 1.28052246 1.07592773 1.94018555 C1.1923546 4.85613726 1.31486867 7.7718029 1.4375 10.6875 C1.47681641 11.69490234 1.51613281 12.70230469 1.55664062 13.74023438 C1.59853516 14.71669922 1.64042969 15.69316406 1.68359375 16.69921875 C1.72025146 17.59471436 1.75690918 18.49020996 1.79467773 19.4128418 C1.93643408 22.04144977 1.93643408 22.04144977 2.64477539 24.70629883 C2.76199951 25.46322021 2.87922363 26.2201416 3 27 C2.34 27.66 1.68 28.32 1 29 C-1.44212755 19.34051334 -1.83577539 9.81038368 0 0 Z " fill="#1C605D" transform="translate(540,146)"/>
<path d="M0 0 C-3.06117568 2.62386487 -3.73173127 3 -8 3 C-8 3.66 -8 4.32 -8 5 C-8.99 5.66 -9.98 6.32 -11 7 C-11.72965366 9.56282742 -11.72965366 9.56282742 -12 12 C-12.99 12.33 -13.98 12.66 -15 13 C-15.5 9.8125 -15.5 9.8125 -15 6 C-12.61886318 3.76370118 -9.93369982 2.3988142 -7 1 C-5.576875 0.319375 -5.576875 0.319375 -4.125 -0.375 C-2 -1 -2 -1 0 0 Z " fill="#1B5F60" transform="translate(54,36)"/>
<path d="M0 0 C2.60423592 -0.02697137 5.20819244 -0.04682489 7.8125 -0.0625 C8.55048828 -0.07087891 9.28847656 -0.07925781 10.04882812 -0.08789062 C13.29922068 -0.10259828 15.89404895 -0.03531702 19 1 C19 1.66 19 2.32 19 3 C22.63 3 26.26 3 30 3 C30 3.33 30 3.66 30 4 C8.13690461 4.64408464 8.13690461 4.64408464 0 0 Z " fill="#1D605F" transform="translate(60,210)"/>
<path d="M0 0 C0.99 0.495 0.99 0.495 2 1 C2 1.66 2 2.32 2 3 C2.99 3.33 3.98 3.66 5 4 C6.2109375 5.7421875 6.2109375 5.7421875 7.375 7.875 C9.48410549 11.46687056 11.3376913 12.96538406 15 15 C15.8125 17.1875 15.8125 17.1875 16 19 C12.24405842 17.46853407 10.10719981 15.20051146 7.4375 12.1875 C6.67308594 11.33542969 5.90867188 10.48335937 5.12109375 9.60546875 C0 3.31491713 0 3.31491713 0 0 Z " fill="#14605F" transform="translate(231,181)"/>
<path d="M0 0 C-14 4 -14 4 -17.83984375 5.0078125 C-21.059405 5.75085668 -21.059405 5.75085668 -23 8 C-24.32 7.34 -25.64 6.68 -27 6 C-23.65486822 3.76991215 -20.46053102 2.91119175 -16.625 1.9375 C-15.965 1.76412109 -15.305 1.59074219 -14.625 1.41210938 C-12.75400635 0.92572557 -10.8770969 0.46227013 -9 0 C-8.10023437 -0.22558594 -7.20046875 -0.45117188 -6.2734375 -0.68359375 C-3.86435926 -1.01887784 -2.29113923 -0.76371308 0 0 Z " fill="#1B5C5B" transform="translate(85,28)"/>
<path d="M0 0 C1.0209375 0.5259375 1.0209375 0.5259375 2.0625 1.0625 C5.79609137 2.25407171 8.15408053 1.70508524 12 1 C13.64444294 0.80067358 15.29037914 0.6133308 16.9375 0.4375 C18.09572266 0.31181641 18.09572266 0.31181641 19.27734375 0.18359375 C19.84582031 0.12300781 20.41429688 0.06242188 21 0 C14.47004862 4.35330092 6.71411784 5.43664818 -1 5 C-0.34 4.67 0.32 4.34 1 4 C0.67 2.68 0.34 1.36 0 0 Z " fill="#19605F" transform="translate(93,208)"/>
<path d="M0 0 C1.37562854 1.28965176 2.70766393 2.62689293 4 4 C4 4.66 4 5.32 4 6 C4.78375 6.28875 5.5675 6.5775 6.375 6.875 C9 8 9 8 11 10 C12.64991582 10.70710678 14.31562256 11.37943989 16 12 C16 12.66 16 13.32 16 14 C8.55403338 12.28170001 2.30718585 7.20781706 -2 1 C-1.34 0.67 -0.68 0.34 0 0 Z " fill="#135D5B" transform="translate(554,193)"/>
<path d="M0 0 C1 3 1 3 -0.3125 5.6875 C-0.869375 6.450625 -1.42625 7.21375 -2 8 C-2.66 8 -3.32 8 -4 8 C-4.0825 8.86625 -4.165 9.7325 -4.25 10.625 C-5.10607746 14.47734858 -6.67368546 16.848219 -9 20 C-10 18 -10 18 -9.43359375 16.15234375 C-6.82563924 10.35348019 -3.67637075 5.18368276 0 0 Z " fill="#185E5D" transform="translate(34,123)"/>
<path d="M0 0 C0.66 0 1.32 0 2 0 C2 0.99 2 1.98 2 3 C2.99 3 3.98 3 5 3 C6.17076699 6.98060777 7.25749403 10.91621717 8 15 C4.10873653 11.66463131 1.82900259 7.73789501 0 3 C0 2.01 0 1.02 0 0 Z " fill="#156360" transform="translate(542,176)"/>
<path d="M0 0 C-2.31 0.33 -4.62 0.66 -7 1 C-7 1.66 -7 2.32 -7 3 C-16.375 6.125 -16.375 6.125 -21 5 C-17.70212712 2.80141808 -14.86193643 1.91684826 -11.0625 0.8125 C-9.83660156 0.44769531 -8.61070312 0.08289063 -7.34765625 -0.29296875 C-4.29101247 -0.93853762 -2.84569773 -1.1197357 0 0 Z " fill="#16625F" transform="translate(594,104)"/>
<path d="M0 0 C-0.33 0.66 -0.66 1.32 -1 2 C-3.64 2 -6.28 2 -9 2 C-9.33 2.99 -9.66 3.98 -10 5 C-10.78375 5.144375 -11.5675 5.28875 -12.375 5.4375 C-14.96421018 5.87798925 -14.96421018 5.87798925 -17 7 C-17.99 6.01 -18.98 5.02 -20 4 C-17.60612843 3.32550034 -15.21030779 2.66023359 -12.8125 2 C-12.13896484 1.80921875 -11.46542969 1.6184375 -10.77148438 1.421875 C-7.09444844 0.4174164 -3.8149818 -0.23704741 0 0 Z " fill="#17615D" transform="translate(79,103)"/>
<path d="M0 0 C0.66 0.33 1.32 0.66 2 1 C-10.02325581 12 -10.02325581 12 -16 12 C-16 11.34 -16 10.68 -16 10 C-10.25 7 -10.25 7 -8 7 C-8 6.34 -8 5.68 -8 5 C-6.3203125 3.67578125 -6.3203125 3.67578125 -4.125 2.3125 C-3.40570312 1.85488281 -2.68640625 1.39726562 -1.9453125 0.92578125 C-0.98238281 0.46751953 -0.98238281 0.46751953 0 0 Z " fill="#1B5F5E" transform="translate(648,196)"/>
<path d="M0 0 C3.92832472 3.57303255 6.20254194 6.85185097 8.375 11.6875 C8.89835938 12.82574219 9.42171875 13.96398437 9.9609375 15.13671875 C10.30382812 16.08160156 10.64671875 17.02648437 11 18 C10.67 18.66 10.34 19.32 10 20 C7.95208138 17.95208138 7.43734309 16.85179586 6.5 14.1875 C6.24605469 13.47980469 5.99210938 12.77210937 5.73046875 12.04296875 C5.36888672 11.03169922 5.36888672 11.03169922 5 10 C4.33933281 8.33094605 3.67561748 6.6630584 3 5 C2.34 5 1.68 5 1 5 C0.67 3.35 0.34 1.7 0 0 Z " fill="#1A5E5D" transform="translate(176,50)"/>
<path d="M0 0 C0.33 0 0.66 0 1 0 C2.22517308 5.66642551 2.09228867 11.23708518 2 17 C1.34 17 0.68 17 0 17 C-0.06058594 16.40832031 -0.12117187 15.81664063 -0.18359375 15.20703125 C-0.62012371 11.09021792 -1.08671346 7.04455467 -2 3 C-1.34 3 -0.68 3 0 3 C0 2.01 0 1.02 0 0 Z " fill="#186362" transform="translate(189,79)"/>
<path d="M0 0 C4.45821166 -0.08674429 8.91620804 -0.14030513 13.375 -0.1875 C14.64601563 -0.21263672 15.91703125 -0.23777344 17.2265625 -0.26367188 C18.43828125 -0.27333984 19.65 -0.28300781 20.8984375 -0.29296875 C22.01911621 -0.3086792 23.13979492 -0.32438965 24.29443359 -0.34057617 C25.18727051 -0.22818604 26.08010742 -0.1157959 27 0 C27.66 0.99 28.32 1.98 29 3 C28.67 3.99 28.34 4.98 28 6 C27.62383545 5.35256836 27.2476709 4.70513672 26.86010742 4.03808594 C25.14793356 1.76195134 25.14793356 1.76195134 22.36450195 1.45410156 C20.81702271 1.42268066 20.81702271 1.42268066 19.23828125 1.390625 C18.12001953 1.35839844 17.00175781 1.32617188 15.84960938 1.29296875 C14.68236328 1.27878906 13.51511719 1.26460937 12.3125 1.25 C11.13365234 1.22035156 9.95480469 1.19070312 8.74023438 1.16015625 C5.82675368 1.08938344 2.91407664 1.03672275 0 1 C0 0.67 0 0.34 0 0 Z " fill="#285A5D" transform="translate(441,27)"/>
<path d="M0 0 C3.49946467 1.11346603 6.72179377 2.36089688 10 4 C10.66 4 11.32 4 12 4 C13.02297922 4.97648017 14.01904252 5.98131338 15 7 C16.31963709 8.01800576 17.65009646 9.02248365 19 10 C14.1611709 9.47041301 10.85031796 8.05604351 6.6875 5.5625 C5.63949219 4.94503906 4.59148438 4.32757813 3.51171875 3.69140625 C1 2 1 2 0 0 Z " fill="#1A5F5D" transform="translate(41,200)"/>
<path d="M0 0 C2.84614024 2.84614024 2.45579076 5.80369142 2.625 9.625 C2.68300781 10.68460938 2.68300781 10.68460938 2.7421875 11.765625 C2.83647724 13.50998524 2.91932891 15.25495691 3 17 C2.34 17 1.68 17 1 17 C0.66104344 15.27192682 0.32908475 13.54248026 0 11.8125 C-0.185625 10.84957031 -0.37125 9.88664063 -0.5625 8.89453125 C-0.97069173 6.19390558 -1.15486792 3.72470754 -1 1 C-0.67 0.67 -0.34 0.34 0 0 Z " fill="#166260" transform="translate(141,188)"/>
<path d="M0 0 C0.33 0 0.66 0 1 0 C1.10957031 0.88042969 1.21914063 1.76085937 1.33203125 2.66796875 C1.49058594 3.82941406 1.64914062 4.99085938 1.8125 6.1875 C1.96332031 7.33605469 2.11414063 8.48460937 2.26953125 9.66796875 C3.00402505 13.01836027 4.07049926 15.1929729 6 18 C4.35 17.67 2.7 17.34 1 17 C0.09586327 13.16275828 -0.10576898 9.62497726 -0.0625 5.6875 C-0.05347656 4.61886719 -0.04445313 3.55023438 -0.03515625 2.44921875 C-0.02355469 1.64097656 -0.01195312 0.83273438 0 0 Z " fill="#145B5B" transform="translate(593,149)"/>
<path d="M0 0 C2.54623682 0.96581397 3.9734119 1.97066141 5.8125 4 C7.56699413 8.43240622 6.74553157 12.37411133 6 17 C5.67 17 5.34 17 5 17 C4.83564453 15.91332031 4.83564453 15.91332031 4.66796875 14.8046875 C3.77128895 9.33712777 2.84045685 4.77713197 0 0 Z " fill="#145B58" transform="translate(647,77)"/>
<path d="M0 0 C0 0.66 0 1.32 0 2 C-6.75 6 -6.75 6 -9 6 C-9 6.66 -9 7.32 -9 8 C-9.99 8.33 -10.98 8.66 -12 9 C-10.6015209 5.5912072 -9.14993067 4.12606165 -6 2.25 C-5.29875 1.82203125 -4.5975 1.3940625 -3.875 0.953125 C-2 0 -2 0 0 0 Z " fill="#165E60" transform="translate(52,111)"/>
<path d="M0 0 C10.55808656 -0.18451025 10.55808656 -0.18451025 15 1 C15 1.66 15 2.32 15 3 C13.24929483 2.88529863 11.49942464 2.75780972 9.75 2.625 C8.77546875 2.55539063 7.8009375 2.48578125 6.796875 2.4140625 C4.10366811 2.01534751 2.33036721 1.36492937 0 0 Z " fill="#1C5F5E" transform="translate(579,210)"/>
<path d="M0 0 C0.33 0 0.66 0 1 0 C1.66 2.97 2.32 5.94 3 9 C5.31 9 7.62 9 10 9 C7.4345406 11.5654594 5.52313332 11.54046087 2 12 C-0.60018816 8.09971775 -0.15085514 4.52565431 0 0 Z " fill="#21645F" transform="translate(43,71)"/>
<path d="M0 0 C0.66 0 1.32 0 2 0 C3.20568053 4.67201205 3.09382426 9.21496292 3 14 C0.31907309 11.31907309 0.61329743 9.60832637 0.375 5.875 C0.30023437 4.77929688 0.22546875 3.68359375 0.1484375 2.5546875 C0.09945312 1.71164063 0.05046875 0.86859375 0 0 Z " fill="#074244" transform="translate(537,37)"/>
<path d="M0 0 C-3.00950123 1.61725534 -5.97103608 2.67582623 -9.25 3.625 C-10.58804688 4.01558594 -10.58804688 4.01558594 -11.953125 4.4140625 C-12.62859375 4.60742188 -13.3040625 4.80078125 -14 5 C-14 4.34 -14 3.68 -14 3 C-8.99067246 -0.00559652 -5.67276511 -0.29341888 0 0 Z " fill="#155F5B" transform="translate(592,72)"/>
<path d="M0 0 C1.13199353 0.9080162 2.25532363 1.82683826 3.375 2.75 C4.00148438 3.26046875 4.62796875 3.7709375 5.2734375 4.296875 C7.08312318 6.08199481 8.00117455 7.67949644 9 10 C6.13302508 8.71480435 4.02392288 7.42870746 2 5 C2 4.34 2 3.68 2 3 C1.34 3 0.68 3 0 3 C0 2.01 0 1.02 0 0 Z " fill="#155C5D" transform="translate(688,43)"/>
<path d="M0 0 C0 0.66 0 1.32 0 2 C-3.11771927 3.60339848 -4.39011689 4.18974141 -7.8125 3.125 C-8.534375 2.75375 -9.25625 2.3825 -10 2 C-6.5980513 -0.09350689 -3.94727588 -0.17942163 0 0 Z " fill="#156160" transform="translate(603,27)"/>
<path d="M0 0 C-2.97 2.475 -2.97 2.475 -6 5 C-6.33 3.35 -6.66 1.7 -7 0 C-3.98968256 -0.93423645 -3.13349732 -1.04449911 0 0 Z " fill="#13615E" transform="translate(335,196)"/>
<path d="M0 0 C1 4 1 4 0.0625 6.25 C-0.4634375 7.11625 -0.4634375 7.11625 -1 8 C-2.32 7.67 -3.64 7.34 -5 7 C-3.35 4.69 -1.7 2.38 0 0 Z " fill="#185F60" transform="translate(650,156)"/>
<path d="M0 0 C3.77545388 1.09068668 6.47043472 1.9083091 9 5 C6.69 4.67 4.38 4.34 2 4 C2 3.34 2 2.68 2 2 C1.34 2 0.68 2 0 2 C0 1.34 0 0.68 0 0 Z " fill="#17615E" transform="translate(672,33)"/>
<path d="M0 0 C-1.70828921 2.10633718 -2.52148416 2.93801608 -5.26171875 3.29296875 C-6.06222656 3.25816406 -6.86273438 3.22335938 -7.6875 3.1875 C-8.89986328 3.14689453 -8.89986328 3.14689453 -10.13671875 3.10546875 C-11.05904297 3.05326172 -11.05904297 3.05326172 -12 3 C-12 2.67 -12 2.34 -12 2 C-7.8803623 0.70756464 -4.33168317 -0.26252625 0 0 Z " fill="#185D5C" transform="translate(297,211)"/>
<path d="M0 0 C0.721875 0.12375 1.44375 0.2475 2.1875 0.375 C-1.01240508 3.11777578 -3.81749382 5.0052836 -7.8125 6.375 C-3.50480769 0.46730769 -3.50480769 0.46730769 0 0 Z " fill="#1A5756" transform="translate(125.8125,199.625)"/>
<path d="M0 0 C-1.65 1.32 -3.3 2.64 -5 4 C-6.32 3.34 -7.64 2.68 -9 2 C-4 -1.33333333 -4 -1.33333333 0 0 Z " fill="#176362" transform="translate(67,32)"/>
</svg>
